<svg
          xmlns="http://www.w3.org/2000/svg"
          xmlns:xlink="http://www.w3.org/1999/xlink"
          viewBox="0 0 1000 1000"
          width="1000"
          height="1000"
          preserveAspectRatio="xMidYMid meet"
          style="width: 100%; height: 100%; transform: translate3d(0px, 0px, 0px); content-visibility: visible;"
          id="Tick"
        >
          <defs>
            <clipPath id="__lottie_element_1725">
              <rect width="1000" height="1000" x="0" y="0" />
            </clipPath>
            <clipPath id="__lottie_element_1727">
              <path d="M0,0 L1000,0 L1000,1000 L0,1000z" />
            </clipPath>
          </defs>
          <g clip-path="url(#__lottie_element_1725)">
            <g
              clip-path="url(#__lottie_element_1727)"
              transform="matrix(1,0,0,1,0,0)"
              opacity="1"
              style="display: block;"
            >
              <g
                transform="matrix(1,0,0,1,0,0)"
                opacity="1"
                style="display: block;"
              >
                <g opacity="1" transform="matrix(1,0,0,1,500,500)">
                  <path
                    fill="rgb(66,244,117)"
                    fill-opacity="1"
                    d=" M282.5,0 C282.5,156.02099609375 156.02099609375,282.5 0,282.5 C-156.02099609375,282.5 -282.5,156.02099609375 -282.5,0 C-282.5,-156.02099609375 -156.02099609375,-282.5 0,-282.5 C156.02099609375,-282.5 282.5,-156.02099609375 282.5,0z"
                  />
                </g>
              </g>
              <g
                transform="matrix(1,0,0,1,0,0)"
                opacity="1"
                style="display: block;"
              >
                <g opacity="1" transform="matrix(1,0,0,1,500,500)">
                  <path
                    stroke-linecap="round"
                    stroke-linejoin="miter"
                    fill-opacity="0"
                    stroke-miterlimit="10"
                    stroke="rgb(255,255,255)"
                    stroke-opacity="1"
                    stroke-width="40"
                    d=" M-102,-4.5 C-102,-4.5 -31,66.5 -31,66.5 C-31,66.5 102,-66.5 102,-66.5"
                  />
                </g>
              </g>
              <g
                transform="matrix(1,0,0,1,-319,-13)"
                opacity="1"
                style="display: block;"
              >
                <g opacity="1" transform="matrix(1,0,0,1,819,513)">
                  <path
                    stroke-linecap="round"
                    stroke-linejoin="miter"
                    fill-opacity="0"
                    stroke-miterlimit="10"
                    stroke="rgb(217,217,217)"
                    stroke-opacity="1"
                    stroke-width="40"
                    d="M0 0"
                  />
                </g>
              </g>
              <g
                transform="matrix(1,0,0,1,-319,95)"
                opacity="1"
                style="display: block;"
              >
                <g opacity="1" transform="matrix(1,0,0,1,819,405)">
                  <path
                    stroke-linecap="round"
                    stroke-linejoin="miter"
                    fill-opacity="0"
                    stroke-miterlimit="10"
                    stroke="rgb(157,157,157)"
                    stroke-opacity="1"
                    stroke-width="40"
                    d="M0 0"
                  />
                </g>
              </g>
              <g
                transform="matrix(1,0,0,1,-319,194)"
                opacity="1"
                style="display: block;"
              >
                <g opacity="1" transform="matrix(1,0,0,1,819,306)">
                  <path
                    stroke-linecap="round"
                    stroke-linejoin="miter"
                    fill-opacity="0"
                    stroke-miterlimit="10"
                    stroke="rgb(93,93,93)"
                    stroke-opacity="1"
                    stroke-width="40"
                    d="M0 0"
                  />
                </g>
              </g>
              <g
                transform="matrix(1,0,0,1,-319,291)"
                opacity="1"
                style="display: block;"
              >
                <g opacity="1" transform="matrix(1,0,0,1,819,209)">
                  <path
                    stroke-linecap="round"
                    stroke-linejoin="miter"
                    fill-opacity="0"
                    stroke-miterlimit="10"
                    stroke="rgb(63,63,63)"
                    stroke-opacity="1"
                    stroke-width="40"
                    d=" M-102,-4.5 C-102,-4.5 -100.9800033569336,-3.4800000190734863 -99.18599700927734,-1.6859999895095825"
                  />
                </g>
              </g>
            </g>
          </g>
        </svg>